<svg xmlns="http://www.w3.org/2000/svg" xmlns:xlink="http://www.w3.org/1999/xlink" width="500" zoomAndPan="magnify" viewBox="0 0 375 374.999991" height="500" preserveAspectRatio="xMidYMid meet" version="1.0"><defs><g/><clipPath id="324a2aabbb"><path d="M 155 145 L 190 145 L 190 198.675781 L 155 198.675781 Z M 155 145 " clip-rule="nonzero"/></clipPath><clipPath id="1bd3ea4637"><path d="M 128.839844 126.675781 L 245.839844 126.675781 L 245.839844 198.675781 L 128.839844 198.675781 Z M 128.839844 126.675781 " clip-rule="nonzero"/></clipPath></defs><rect x="-37.5" width="450" fill="#ffffff" y="-37.499999" height="449.999989" fill-opacity="1"/><rect x="-37.5" width="450" fill="#ffffff" y="-37.499999" height="449.999989" fill-opacity="1"/><g fill="#333333" fill-opacity="1"><g transform="translate(55.502248, 226.074945)"><g><path d="M 7.65625 0.984375 L 15.046875 -16.320312 L 13.222656 -16.320312 L 7.65625 -3.167969 L 2.0625 -16.320312 L 0.238281 -16.320312 Z M 7.65625 0.984375 "/></g></g></g><g fill="#333333" fill-opacity="1"><g transform="translate(75.590343, 226.074945)"><g><path d="M 6.3125 -7.679688 C 8.425781 -7.175781 9.863281 -6.625 10.632812 -6 C 11.160156 -5.566406 11.425781 -5.015625 11.425781 -4.34375 C 11.425781 -3.671875 11.28125 -3.121094 10.992188 -2.734375 C 10.273438 -1.726562 8.976562 -1.222656 7.152344 -1.222656 C 4.609375 -1.222656 3.167969 -2.089844 2.855469 -3.816406 L 0.886719 -3.816406 C 1.464844 -1.054688 3.550781 0.3125 7.152344 0.3125 C 8.761719 0.3125 10.105469 -0.0234375 11.183594 -0.742188 C 12.480469 -1.585938 13.152344 -2.832031 13.152344 -4.464844 C 13.152344 -5.808594 12.625 -6.839844 11.566406 -7.558594 C 10.824219 -8.089844 9.625 -8.566406 7.96875 -9 C 6.289062 -9.433594 5.207031 -9.792969 4.703125 -10.054688 C 3.601562 -10.609375 3.046875 -11.375 3.070312 -12.382812 C 3.070312 -12.910156 3.167969 -13.367188 3.40625 -13.703125 C 4.03125 -14.640625 5.136719 -15.121094 6.71875 -15.121094 C 8.953125 -15.121094 10.222656 -14.398438 10.558594 -13.007812 L 12.382812 -13.007812 C 11.785156 -15.359375 9.886719 -16.558594 6.71875 -16.558594 C 5.28125 -16.558594 4.007812 -16.175781 2.953125 -15.40625 C 1.871094 -14.640625 1.320312 -13.511719 1.320312 -11.976562 C 1.320312 -9.886719 3 -8.449219 6.3125 -7.679688 Z M 6.3125 -7.679688 "/></g></g></g><g fill="#333333" fill-opacity="1"><g transform="translate(94.166433, 226.074945)"><g/></g></g><g fill="#333333" fill-opacity="1"><g transform="translate(105.446505, 226.074945)"><g><path d="M 3.480469 -8.0625 L 3.480469 -14.710938 L 7.273438 -14.710938 C 8.257812 -14.710938 9.046875 -14.398438 9.648438 -13.777344 C 10.222656 -13.152344 10.535156 -12.382812 10.535156 -11.425781 C 10.535156 -10.464844 10.222656 -9.671875 9.601562 -9.023438 C 8.976562 -8.375 8.207031 -8.0625 7.273438 -8.0625 Z M 12.214844 -11.398438 C 12.214844 -12.792969 11.6875 -13.992188 10.679688 -14.929688 C 9.695312 -15.839844 8.472656 -16.320312 7.03125 -16.320312 L 1.800781 -16.320312 L 1.800781 0 L 3.480469 0 L 3.480469 -6.457031 L 5.425781 -6.457031 L 10.222656 0 L 12.480469 0 L 7.441406 -6.457031 C 8.710938 -6.527344 9.792969 -6.984375 10.679688 -7.824219 C 11.6875 -8.761719 12.214844 -9.960938 12.214844 -11.398438 Z M 12.214844 -11.398438 "/></g></g></g><g fill="#333333" fill-opacity="1"><g transform="translate(123.302588, 226.074945)"><g><path d="M 11.496094 0 L 11.496094 -1.558594 L 3.480469 -1.558594 L 3.480469 -7.367188 L 11.257812 -7.367188 L 11.257812 -8.953125 L 3.480469 -8.953125 L 3.480469 -14.761719 L 11.496094 -14.761719 L 11.496094 -16.320312 L 1.800781 -16.320312 L 1.800781 0 Z M 11.496094 0 "/></g></g></g><g fill="#333333" fill-opacity="1"><g transform="translate(141.398677, 226.074945)"><g><path d="M 4.441406 -6 L 7.414062 -13.511719 L 10.367188 -6 Z M 14.566406 0 L 7.414062 -17.449219 L 0.238281 0 L 2.0625 0 L 3.816406 -4.441406 L 10.992188 -4.441406 L 12.742188 0 Z M 14.566406 0 "/></g></g></g><g fill="#333333" fill-opacity="1"><g transform="translate(161.006765, 226.074945)"><g><path d="M 3.480469 -1.679688 L 3.480469 -16.320312 L 1.800781 -16.320312 L 1.800781 0 L 9.3125 0 L 9.3125 -1.679688 Z M 3.480469 -1.679688 "/></g></g></g><g fill="#333333" fill-opacity="1"><g transform="translate(175.598851, 226.074945)"><g><path d="M 0.480469 -14.808594 L 4.441406 -14.808594 L 4.441406 -0.046875 L 6.121094 -0.046875 L 6.121094 -14.808594 L 10.078125 -14.808594 L 10.078125 -16.367188 L 0.480469 -16.367188 Z M 0.480469 -14.808594 "/></g></g></g><g fill="#333333" fill-opacity="1"><g transform="translate(190.958939, 226.074945)"><g><path d="M 8.113281 -7.679688 L 14.28125 -16.320312 L 12.144531 -16.320312 L 7.273438 -9.335938 L 2.398438 -16.320312 L 0.238281 -16.320312 L 6.433594 -7.65625 L 6.433594 0 L 8.113281 0 Z M 8.113281 -7.679688 "/></g></g></g><g fill="#333333" fill-opacity="1"><g transform="translate(210.279037, 226.074945)"><g/></g></g><g fill="#333333" fill-opacity="1"><g transform="translate(221.559111, 226.074945)"><g><path d="M 17.902344 -7.632812 L 9.40625 -7.632812 L 9.40625 -6.167969 L 16.03125 -6.167969 C 15.527344 -4.753906 14.6875 -3.601562 13.488281 -2.761719 C 12.289062 -1.894531 10.945312 -1.488281 9.480469 -1.488281 C 7.609375 -1.488281 6.023438 -2.136719 4.703125 -3.457031 C 3.40625 -4.777344 2.761719 -6.382812 2.761719 -8.230469 C 2.761719 -10.078125 3.40625 -11.664062 4.726562 -12.984375 C 6.023438 -14.28125 7.609375 -14.953125 9.480469 -14.953125 C 10.871094 -14.953125 12.144531 -14.542969 13.273438 -13.753906 C 14.425781 -12.960938 15.238281 -11.929688 15.769531 -10.609375 L 17.542969 -10.609375 C 16.992188 -12.40625 15.960938 -13.847656 14.472656 -14.953125 C 12.984375 -16.054688 11.257812 -16.632812 9.3125 -16.632812 C 8.257812 -16.632812 7.222656 -16.390625 6.214844 -15.960938 C 5.183594 -15.527344 4.296875 -14.929688 3.527344 -14.160156 C 2.761719 -13.390625 2.160156 -12.503906 1.726562 -11.496094 C 1.296875 -10.464844 1.078125 -9.359375 1.078125 -8.207031 C 1.078125 -7.054688 1.296875 -5.953125 1.726562 -4.945312 C 2.160156 -3.910156 2.761719 -3.023438 3.527344 -2.257812 C 4.296875 -1.488281 5.183594 -0.886719 6.214844 -0.457031 C 7.222656 -0.0234375 8.328125 0.191406 9.480469 0.191406 C 11.449219 0.191406 13.222656 -0.433594 14.808594 -1.703125 C 16.390625 -3 17.375 -4.632812 17.734375 -6.625 Z M 17.902344 -7.632812 "/></g></g></g><g fill="#333333" fill-opacity="1"><g transform="translate(245.343217, 226.074945)"><g><path d="M 3.480469 -8.0625 L 3.480469 -14.710938 L 7.273438 -14.710938 C 8.257812 -14.710938 9.046875 -14.398438 9.648438 -13.777344 C 10.222656 -13.152344 10.535156 -12.382812 10.535156 -11.425781 C 10.535156 -10.464844 10.222656 -9.671875 9.601562 -9.023438 C 8.976562 -8.375 8.207031 -8.0625 7.273438 -8.0625 Z M 12.214844 -11.398438 C 12.214844 -12.792969 11.6875 -13.992188 10.679688 -14.929688 C 9.695312 -15.839844 8.472656 -16.320312 7.03125 -16.320312 L 1.800781 -16.320312 L 1.800781 0 L 3.480469 0 L 3.480469 -6.457031 L 5.425781 -6.457031 L 10.222656 0 L 12.480469 0 L 7.441406 -6.457031 C 8.710938 -6.527344 9.792969 -6.984375 10.679688 -7.824219 C 11.6875 -8.761719 12.214844 -9.960938 12.214844 -11.398438 Z M 12.214844 -11.398438 "/></g></g></g><g fill="#333333" fill-opacity="1"><g transform="translate(263.199294, 226.074945)"><g><path d="M 16.175781 -8.207031 C 16.175781 -6.335938 15.503906 -4.753906 14.207031 -3.457031 C 12.886719 -2.136719 11.304688 -1.488281 9.457031 -1.488281 C 7.609375 -1.488281 6.023438 -2.136719 4.726562 -3.457031 C 3.40625 -4.753906 2.761719 -6.335938 2.761719 -8.207031 C 2.761719 -10.03125 3.40625 -11.617188 4.726562 -12.9375 C 6.023438 -14.230469 7.609375 -14.902344 9.457031 -14.902344 C 11.304688 -14.902344 12.886719 -14.230469 14.207031 -12.9375 C 15.503906 -11.617188 16.175781 -10.03125 16.175781 -8.207031 Z M 17.855469 -8.207031 C 17.855469 -9.359375 17.617188 -10.441406 17.183594 -11.472656 C 16.753906 -12.480469 16.152344 -13.367188 15.382812 -14.136719 C 14.617188 -14.878906 13.726562 -15.480469 12.71875 -15.910156 C 11.6875 -16.34375 10.609375 -16.585938 9.457031 -16.585938 C 8.304688 -16.585938 7.199219 -16.34375 6.191406 -15.910156 C 5.183594 -15.480469 4.296875 -14.878906 3.527344 -14.136719 C 2.761719 -13.367188 2.160156 -12.480469 1.726562 -11.472656 C 1.296875 -10.441406 1.078125 -9.359375 1.078125 -8.207031 C 1.078125 -7.054688 1.296875 -5.953125 1.726562 -4.945312 C 2.160156 -3.910156 2.761719 -3.023438 3.527344 -2.257812 C 4.296875 -1.488281 5.183594 -0.886719 6.191406 -0.457031 C 7.199219 -0.0234375 8.304688 0.191406 9.457031 0.191406 C 10.609375 0.191406 11.6875 -0.0234375 12.71875 -0.457031 C 13.726562 -0.886719 14.617188 -1.488281 15.382812 -2.257812 C 16.152344 -3.023438 16.753906 -3.910156 17.183594 -4.945312 C 17.617188 -5.953125 17.855469 -7.054688 17.855469 -8.207031 Z M 17.855469 -8.207031 "/></g></g></g><g fill="#333333" fill-opacity="1"><g transform="translate(286.935392, 226.074945)"><g><path d="M 13.609375 -5.398438 L 13.609375 -16.320312 L 11.929688 -16.320312 L 11.929688 -5.160156 C 11.929688 -4.488281 11.808594 -3.9375 11.566406 -3.480469 C 10.871094 -2.136719 9.527344 -1.464844 7.535156 -1.464844 C 6.238281 -1.464844 5.207031 -1.753906 4.441406 -2.328125 C 3.550781 -2.976562 3.121094 -3.910156 3.121094 -5.160156 L 3.121094 -16.320312 L 1.441406 -16.320312 L 1.441406 -5.398438 C 1.441406 -3.625 2.015625 -2.230469 3.167969 -1.222656 C 4.246094 -0.265625 5.710938 0.214844 7.535156 0.214844 C 9.335938 0.214844 10.777344 -0.265625 11.878906 -1.222656 C 13.03125 -2.230469 13.609375 -3.625 13.609375 -5.398438 Z M 13.609375 -5.398438 "/></g></g></g><g fill="#333333" fill-opacity="1"><g transform="translate(306.783474, 226.074945)"><g><path d="M 3.480469 -8.089844 L 3.480469 -14.710938 L 7.273438 -14.710938 C 8.257812 -14.710938 9.046875 -14.398438 9.648438 -13.800781 C 10.222656 -13.175781 10.535156 -12.40625 10.535156 -11.449219 C 10.535156 -10.464844 10.222656 -9.671875 9.601562 -9.023438 C 8.976562 -8.398438 8.207031 -8.089844 7.273438 -8.089844 Z M 12.214844 -11.398438 C 12.214844 -12.839844 11.6875 -14.015625 10.679688 -14.953125 C 9.671875 -15.863281 8.472656 -16.320312 7.03125 -16.320312 L 1.800781 -16.320312 L 1.800781 0 L 3.480469 0 L 3.480469 -6.457031 L 7.03125 -6.457031 C 8.472656 -6.457031 9.695312 -6.910156 10.679688 -7.824219 C 11.6875 -8.785156 12.214844 -9.960938 12.214844 -11.398438 Z M 12.214844 -11.398438 "/></g></g></g><g clip-path="url(#324a2aabbb)"><path fill="#ffbd59" d="M 187.945312 198.203125 L 157 198.203125 C 156.28125 198.203125 155.703125 197.523438 155.703125 196.679688 L 155.703125 147.285156 C 155.703125 146.445312 156.28125 145.761719 157 145.761719 L 187.945312 145.761719 C 188.664062 145.761719 189.242188 146.445312 189.242188 147.285156 L 189.242188 196.679688 C 189.242188 197.523438 188.664062 198.203125 187.945312 198.203125 Z M 187.945312 198.203125 " fill-opacity="1" fill-rule="nonzero"/></g><g clip-path="url(#1bd3ea4637)"><path fill="#333333" d="M 245.210938 198.769531 L 198.535156 198.769531 C 198.007812 198.769531 197.578125 198.34375 197.578125 197.8125 L 197.578125 191.214844 L 173.445312 191.214844 C 172.917969 191.214844 172.488281 190.785156 172.488281 190.257812 L 172.488281 162.394531 L 146.570312 174.730469 L 146.570312 197.53125 C 146.570312 198.0625 146.140625 198.488281 145.613281 198.488281 L 129.796875 198.488281 C 129.269531 198.488281 128.839844 198.0625 128.839844 197.53125 C 128.839844 197.003906 129.269531 196.574219 129.796875 196.574219 L 144.65625 196.574219 L 144.65625 174.125 C 144.65625 173.757812 144.867188 173.421875 145.199219 173.261719 L 172.488281 160.277344 L 172.488281 127.632812 C 172.488281 127.101562 172.917969 126.675781 173.445312 126.675781 L 198.117188 126.675781 C 198.644531 126.675781 199.074219 127.101562 199.074219 127.632812 L 199.074219 149.140625 C 199.074219 149.507812 198.859375 149.84375 198.527344 150.003906 L 174.402344 161.484375 L 174.402344 189.300781 L 197.578125 189.300781 L 197.578125 154.457031 C 197.578125 154.109375 197.769531 153.789062 198.070312 153.621094 C 198.375 153.453125 198.746094 153.460938 199.042969 153.644531 L 222.976562 168.570312 C 223.257812 168.746094 223.429688 169.050781 223.429688 169.382812 L 223.429688 190.257812 C 223.429688 190.785156 223 191.214844 222.472656 191.214844 L 199.492188 191.214844 L 199.492188 196.855469 L 245.210938 196.855469 C 245.738281 196.855469 246.167969 197.285156 246.167969 197.8125 C 246.167969 198.34375 245.738281 198.769531 245.210938 198.769531 Z M 199.492188 189.300781 L 221.515625 189.300781 L 221.515625 169.914062 L 199.492188 156.183594 Z M 174.402344 128.589844 L 174.402344 159.363281 L 197.160156 148.535156 L 197.160156 128.589844 Z M 174.402344 128.589844 " fill-opacity="1" fill-rule="nonzero"/></g><g fill="#333333" fill-opacity="1"><g transform="translate(83.410827, 245.627269)"><g><path d="M 1.847656 -2.5 L 3.089844 -5.628906 L 4.320312 -2.5 Z M 6.070312 0 L 3.089844 -7.269531 L 0.101562 0 L 0.859375 0 L 1.589844 -1.847656 L 4.578125 -1.847656 L 5.308594 0 Z M 6.070312 0 "/></g></g></g><g fill="#333333" fill-opacity="1"><g transform="translate(91.57843, 245.627269)"><g/></g></g><g fill="#333333" fill-opacity="1"><g transform="translate(96.27741, 245.627269)"><g><path d="M 1.449219 -5.007812 L 5.269531 0.417969 L 5.269531 -6.796875 L 4.570312 -6.796875 L 4.570312 -1.800781 L 0.75 -7.226562 L 0.75 0 L 1.449219 0 Z M 1.449219 -5.007812 "/></g></g></g><g fill="#333333" fill-opacity="1"><g transform="translate(104.295073, 245.627269)"><g><path d="M 4.789062 0 L 4.789062 -0.648438 L 1.449219 -0.648438 L 1.449219 -3.070312 L 4.6875 -3.070312 L 4.6875 -3.730469 L 1.449219 -3.730469 L 1.449219 -6.148438 L 4.789062 -6.148438 L 4.789062 -6.796875 L 0.75 -6.796875 L 0.75 0 Z M 4.789062 0 "/></g></g></g><g fill="#333333" fill-opacity="1"><g transform="translate(111.832931, 245.627269)"><g><path d="M 6.148438 0.550781 L 7.726562 -6.796875 L 7.019531 -6.796875 L 5.957031 -1.859375 L 3.917969 -7.199219 L 1.871094 -1.859375 L 0.820312 -6.796875 L 0.101562 -6.796875 L 1.691406 0.550781 L 3.917969 -5.367188 Z M 6.148438 0.550781 "/></g></g></g><g fill="#333333" fill-opacity="1"><g transform="translate(121.65988, 245.627269)"><g/></g></g><g fill="#333333" fill-opacity="1"><g transform="translate(126.358861, 245.627269)"><g><path d="M 6.027344 -3.398438 C 6.027344 -3.890625 5.929688 -4.339844 5.75 -4.757812 C 5.570312 -5.179688 5.320312 -5.539062 5.007812 -5.839844 C 4.6875 -6.136719 4.320312 -6.367188 3.898438 -6.539062 C 3.46875 -6.707031 3.007812 -6.796875 2.53125 -6.796875 L 0.75 -6.796875 L 0.75 0 L 2.53125 0 C 3.007812 0 3.46875 -0.078125 3.898438 -0.25 C 4.320312 -0.417969 4.6875 -0.660156 5.007812 -0.960938 C 5.320312 -1.257812 5.570312 -1.609375 5.75 -2.03125 C 5.929688 -2.449219 6.027344 -2.898438 6.027344 -3.398438 Z M 5.347656 -3.398438 C 5.347656 -2.621094 5.070312 -1.96875 4.527344 -1.460938 C 3.988281 -0.949219 3.328125 -0.699219 2.550781 -0.699219 L 1.449219 -0.699219 L 1.449219 -6.097656 L 2.550781 -6.097656 C 3.328125 -6.097656 3.988281 -5.839844 4.527344 -5.339844 C 5.070312 -4.820312 5.347656 -4.167969 5.347656 -3.398438 Z M 5.347656 -3.398438 "/></g></g></g><g fill="#333333" fill-opacity="1"><g transform="translate(134.836349, 245.627269)"><g><path d="M 1.449219 0 L 1.449219 -6.796875 L 0.75 -6.796875 L 0.75 0 Z M 1.449219 0 "/></g></g></g><g fill="#333333" fill-opacity="1"><g transform="translate(139.035518, 245.627269)"><g><path d="M 7.019531 0 L 7.726562 0 L 6.148438 -7.25 L 3.917969 -1.429688 L 1.691406 -7.25 L 0.101562 0 L 0.820312 0 L 1.871094 -4.839844 L 3.917969 0.398438 L 5.957031 -4.839844 Z M 7.019531 0 "/></g></g></g><g fill="#333333" fill-opacity="1"><g transform="translate(148.862467, 245.627269)"><g><path d="M 4.789062 0 L 4.789062 -0.648438 L 1.449219 -0.648438 L 1.449219 -3.070312 L 4.6875 -3.070312 L 4.6875 -3.730469 L 1.449219 -3.730469 L 1.449219 -6.148438 L 4.789062 -6.148438 L 4.789062 -6.796875 L 0.75 -6.796875 L 0.75 0 Z M 4.789062 0 "/></g></g></g><g fill="#333333" fill-opacity="1"><g transform="translate(156.400324, 245.627269)"><g><path d="M 1.449219 -5.007812 L 5.269531 0.417969 L 5.269531 -6.796875 L 4.570312 -6.796875 L 4.570312 -1.800781 L 0.75 -7.226562 L 0.75 0 L 1.449219 0 Z M 1.449219 -5.007812 "/></g></g></g><g fill="#333333" fill-opacity="1"><g transform="translate(164.417986, 245.627269)"><g><path d="M 2.628906 -3.199219 C 3.507812 -2.988281 4.109375 -2.757812 4.429688 -2.5 C 4.648438 -2.320312 4.757812 -2.089844 4.757812 -1.808594 C 4.757812 -1.53125 4.699219 -1.300781 4.578125 -1.140625 C 4.277344 -0.71875 3.738281 -0.511719 2.980469 -0.511719 C 1.917969 -0.511719 1.320312 -0.871094 1.191406 -1.589844 L 0.371094 -1.589844 C 0.609375 -0.441406 1.480469 0.128906 2.980469 0.128906 C 3.648438 0.128906 4.207031 -0.0117188 4.660156 -0.308594 C 5.199219 -0.660156 5.480469 -1.179688 5.480469 -1.859375 C 5.480469 -2.417969 5.257812 -2.847656 4.820312 -3.148438 C 4.507812 -3.371094 4.007812 -3.570312 3.320312 -3.75 C 2.621094 -3.929688 2.167969 -4.078125 1.960938 -4.1875 C 1.5 -4.417969 1.269531 -4.738281 1.28125 -5.160156 C 1.28125 -5.378906 1.320312 -5.570312 1.417969 -5.707031 C 1.679688 -6.097656 2.140625 -6.296875 2.800781 -6.296875 C 3.730469 -6.296875 4.257812 -6 4.398438 -5.417969 L 5.160156 -5.417969 C 4.910156 -6.398438 4.117188 -6.898438 2.800781 -6.898438 C 2.199219 -6.898438 1.667969 -6.738281 1.230469 -6.417969 C 0.78125 -6.097656 0.550781 -5.628906 0.550781 -4.988281 C 0.550781 -4.117188 1.25 -3.519531 2.628906 -3.199219 Z M 2.628906 -3.199219 "/></g></g></g><g fill="#333333" fill-opacity="1"><g transform="translate(172.155759, 245.627269)"><g><path d="M 1.449219 0 L 1.449219 -6.796875 L 0.75 -6.796875 L 0.75 0 Z M 1.449219 0 "/></g></g></g><g fill="#333333" fill-opacity="1"><g transform="translate(176.354928, 245.627269)"><g><path d="M 6.738281 -3.417969 C 6.738281 -2.640625 6.457031 -1.980469 5.917969 -1.441406 C 5.367188 -0.890625 4.707031 -0.621094 3.9375 -0.621094 C 3.167969 -0.621094 2.507812 -0.890625 1.96875 -1.441406 C 1.417969 -1.980469 1.148438 -2.640625 1.148438 -3.417969 C 1.148438 -4.179688 1.417969 -4.839844 1.96875 -5.386719 C 2.507812 -5.929688 3.167969 -6.207031 3.9375 -6.207031 C 4.707031 -6.207031 5.367188 -5.929688 5.917969 -5.386719 C 6.457031 -4.839844 6.738281 -4.179688 6.738281 -3.417969 Z M 7.4375 -3.417969 C 7.4375 -3.898438 7.339844 -4.347656 7.160156 -4.777344 C 6.976562 -5.199219 6.726562 -5.570312 6.410156 -5.886719 C 6.089844 -6.199219 5.71875 -6.449219 5.296875 -6.628906 C 4.867188 -6.808594 4.417969 -6.910156 3.9375 -6.910156 C 3.460938 -6.910156 3 -6.808594 2.578125 -6.628906 C 2.160156 -6.449219 1.789062 -6.199219 1.46875 -5.886719 C 1.148438 -5.570312 0.898438 -5.199219 0.71875 -4.777344 C 0.539062 -4.347656 0.449219 -3.898438 0.449219 -3.417969 C 0.449219 -2.9375 0.539062 -2.480469 0.71875 -2.058594 C 0.898438 -1.628906 1.148438 -1.257812 1.46875 -0.941406 C 1.789062 -0.621094 2.160156 -0.371094 2.578125 -0.191406 C 3 -0.0117188 3.460938 0.078125 3.9375 0.078125 C 4.417969 0.078125 4.867188 -0.0117188 5.296875 -0.191406 C 5.71875 -0.371094 6.089844 -0.621094 6.410156 -0.941406 C 6.726562 -1.257812 6.976562 -1.628906 7.160156 -2.058594 C 7.339844 -2.480469 7.4375 -2.9375 7.4375 -3.417969 Z M 7.4375 -3.417969 "/></g></g></g><g fill="#333333" fill-opacity="1"><g transform="translate(186.241856, 245.627269)"><g><path d="M 1.449219 -5.007812 L 5.269531 0.417969 L 5.269531 -6.796875 L 4.570312 -6.796875 L 4.570312 -1.800781 L 0.75 -7.226562 L 0.75 0 L 1.449219 0 Z M 1.449219 -5.007812 "/></g></g></g><g fill="#333333" fill-opacity="1"><g transform="translate(194.259517, 245.627269)"><g/></g></g><g fill="#333333" fill-opacity="1"><g transform="translate(198.958495, 245.627269)"><g><path d="M 1.449219 0 L 1.449219 -6.796875 L 0.75 -6.796875 L 0.75 0 Z M 1.449219 0 "/></g></g></g><g fill="#333333" fill-opacity="1"><g transform="translate(203.157664, 245.627269)"><g><path d="M 1.449219 -5.007812 L 5.269531 0.417969 L 5.269531 -6.796875 L 4.570312 -6.796875 L 4.570312 -1.800781 L 0.75 -7.226562 L 0.75 0 L 1.449219 0 Z M 1.449219 -5.007812 "/></g></g></g><g fill="#333333" fill-opacity="1"><g transform="translate(211.175326, 245.627269)"><g/></g></g><g fill="#333333" fill-opacity="1"><g transform="translate(215.874304, 245.627269)"><g><path d="M 1.449219 -3.359375 L 1.449219 -6.128906 L 3.027344 -6.128906 C 3.4375 -6.128906 3.769531 -6 4.019531 -5.738281 C 4.257812 -5.480469 4.390625 -5.160156 4.390625 -4.757812 C 4.390625 -4.359375 4.257812 -4.027344 4 -3.757812 C 3.738281 -3.488281 3.417969 -3.359375 3.027344 -3.359375 Z M 5.089844 -4.75 C 5.089844 -5.328125 4.867188 -5.828125 4.449219 -6.21875 C 4.039062 -6.597656 3.527344 -6.796875 2.929688 -6.796875 L 0.75 -6.796875 L 0.75 0 L 1.449219 0 L 1.449219 -2.6875 L 2.257812 -2.6875 L 4.257812 0 L 5.199219 0 L 3.097656 -2.6875 C 3.628906 -2.71875 4.078125 -2.910156 4.449219 -3.257812 C 4.867188 -3.648438 5.089844 -4.148438 5.089844 -4.75 Z M 5.089844 -4.75 "/></g></g></g><g fill="#333333" fill-opacity="1"><g transform="translate(223.312196, 245.627269)"><g><path d="M 4.789062 0 L 4.789062 -0.648438 L 1.449219 -0.648438 L 1.449219 -3.070312 L 4.6875 -3.070312 L 4.6875 -3.730469 L 1.449219 -3.730469 L 1.449219 -6.148438 L 4.789062 -6.148438 L 4.789062 -6.796875 L 0.75 -6.796875 L 0.75 0 Z M 4.789062 0 "/></g></g></g><g fill="#333333" fill-opacity="1"><g transform="translate(230.850053, 245.627269)"><g><path d="M 1.847656 -2.5 L 3.089844 -5.628906 L 4.320312 -2.5 Z M 6.070312 0 L 3.089844 -7.269531 L 0.101562 0 L 0.859375 0 L 1.589844 -1.847656 L 4.578125 -1.847656 L 5.308594 0 Z M 6.070312 0 "/></g></g></g><g fill="#333333" fill-opacity="1"><g transform="translate(239.017655, 245.627269)"><g><path d="M 1.449219 -0.699219 L 1.449219 -6.796875 L 0.75 -6.796875 L 0.75 0 L 3.878906 0 L 3.878906 -0.699219 Z M 1.449219 -0.699219 "/></g></g></g><g fill="#333333" fill-opacity="1"><g transform="translate(245.096081, 245.627269)"><g/></g></g><g fill="#333333" fill-opacity="1"><g transform="translate(249.795059, 245.627269)"><g><path d="M 4.789062 0 L 4.789062 -0.648438 L 1.449219 -0.648438 L 1.449219 -3.070312 L 4.6875 -3.070312 L 4.6875 -3.730469 L 1.449219 -3.730469 L 1.449219 -6.148438 L 4.789062 -6.148438 L 4.789062 -6.796875 L 0.75 -6.796875 L 0.75 0 Z M 4.789062 0 "/></g></g></g><g fill="#333333" fill-opacity="1"><g transform="translate(257.332916, 245.627269)"><g><path d="M 2.628906 -3.199219 C 3.507812 -2.988281 4.109375 -2.757812 4.429688 -2.5 C 4.648438 -2.320312 4.757812 -2.089844 4.757812 -1.808594 C 4.757812 -1.53125 4.699219 -1.300781 4.578125 -1.140625 C 4.277344 -0.71875 3.738281 -0.511719 2.980469 -0.511719 C 1.917969 -0.511719 1.320312 -0.871094 1.191406 -1.589844 L 0.371094 -1.589844 C 0.609375 -0.441406 1.480469 0.128906 2.980469 0.128906 C 3.648438 0.128906 4.207031 -0.0117188 4.660156 -0.308594 C 5.199219 -0.660156 5.480469 -1.179688 5.480469 -1.859375 C 5.480469 -2.417969 5.257812 -2.847656 4.820312 -3.148438 C 4.507812 -3.371094 4.007812 -3.570312 3.320312 -3.75 C 2.621094 -3.929688 2.167969 -4.078125 1.960938 -4.1875 C 1.5 -4.417969 1.269531 -4.738281 1.28125 -5.160156 C 1.28125 -5.378906 1.320312 -5.570312 1.417969 -5.707031 C 1.679688 -6.097656 2.140625 -6.296875 2.800781 -6.296875 C 3.730469 -6.296875 4.257812 -6 4.398438 -5.417969 L 5.160156 -5.417969 C 4.910156 -6.398438 4.117188 -6.898438 2.800781 -6.898438 C 2.199219 -6.898438 1.667969 -6.738281 1.230469 -6.417969 C 0.78125 -6.097656 0.550781 -5.628906 0.550781 -4.988281 C 0.550781 -4.117188 1.25 -3.519531 2.628906 -3.199219 Z M 2.628906 -3.199219 "/></g></g></g><g fill="#333333" fill-opacity="1"><g transform="translate(265.070689, 245.627269)"><g><path d="M 0.199219 -6.167969 L 1.847656 -6.167969 L 1.847656 -0.0195312 L 2.550781 -0.0195312 L 2.550781 -6.167969 L 4.199219 -6.167969 L 4.199219 -6.816406 L 0.199219 -6.816406 Z M 0.199219 -6.167969 "/></g></g></g><g fill="#333333" fill-opacity="1"><g transform="translate(271.468989, 245.627269)"><g><path d="M 1.847656 -2.5 L 3.089844 -5.628906 L 4.320312 -2.5 Z M 6.070312 0 L 3.089844 -7.269531 L 0.101562 0 L 0.859375 0 L 1.589844 -1.847656 L 4.578125 -1.847656 L 5.308594 0 Z M 6.070312 0 "/></g></g></g><g fill="#333333" fill-opacity="1"><g transform="translate(279.636591, 245.627269)"><g><path d="M 0.199219 -6.167969 L 1.847656 -6.167969 L 1.847656 -0.0195312 L 2.550781 -0.0195312 L 2.550781 -6.167969 L 4.199219 -6.167969 L 4.199219 -6.816406 L 0.199219 -6.816406 Z M 0.199219 -6.167969 "/></g></g></g><g fill="#333333" fill-opacity="1"><g transform="translate(286.034891, 245.627269)"><g><path d="M 4.789062 0 L 4.789062 -0.648438 L 1.449219 -0.648438 L 1.449219 -3.070312 L 4.6875 -3.070312 L 4.6875 -3.730469 L 1.449219 -3.730469 L 1.449219 -6.148438 L 4.789062 -6.148438 L 4.789062 -6.796875 L 0.75 -6.796875 L 0.75 0 Z M 4.789062 0 "/></g></g></g></svg>