<?xml version="1.0" standalone="no"?>
<!DOCTYPE svg PUBLIC "-//W3C//DTD SVG 20010904//EN"
 "http://www.w3.org/TR/2001/REC-SVG-20010904/DTD/svg10.dtd">
<svg version="1.0" xmlns="http://www.w3.org/2000/svg"
 width="512.000000pt" height="512.000000pt" viewBox="0 0 512.000000 512.000000"
 preserveAspectRatio="xMidYMid meet">

<g transform="translate(0.000000,512.000000) scale(0.100000,-0.100000)"
fill="#000000" stroke="none">
<path d="M895 5105 c-192 -41 -365 -195 -436 -386 l-24 -64 -3 -831 -3 -831
-85 -6 c-145 -10 -251 -77 -309 -194 -24 -50 -29 -73 -33 -163 -3 -96 -2 -109
20 -149 33 -62 90 -91 175 -91 l63 0 0 -444 c0 -354 3 -460 15 -523 53 -278
211 -531 434 -693 l61 -45 0 -87 0 -88 -72 0 c-165 -1 -268 -103 -268 -267 l0
-73 -180 0 c-191 0 -220 -6 -239 -47 -18 -39 -13 -63 18 -94 l29 -29 2502 0
2502 0 29 29 c31 31 36 55 18 94 -19 41 -48 47 -239 47 l-180 0 0 73 c0 164
-103 266 -267 267 l-73 0 0 88 0 87 59 43 c62 46 178 159 231 227 78 98 151
252 192 403 17 63 22 118 27 297 l6 220 70 5 c88 6 132 31 163 90 21 40 23 56
20 145 -5 125 -34 196 -109 267 -90 84 -111 88 -469 88 l-309 0 -36 54 c-59
89 -163 180 -257 225 -142 67 -130 66 -768 66 -515 0 -582 -2 -638 -17 -83
-23 -174 -69 -243 -123 l-55 -43 -65 50 c-88 70 -152 110 -256 162 -223 110
-412 146 -779 146 l-194 0 0 781 0 781 29 29 29 29 247 0 c193 0 252 -3 273
-14 15 -8 53 -41 86 -74 l59 -60 -20 -29 c-64 -90 -103 -211 -103 -320 0 -80
20 -121 80 -161 l34 -23 485 3 486 3 33 23 c72 52 88 137 52 276 -26 102 -72
187 -143 263 -100 106 -228 175 -354 189 l-58 7 -165 162 c-183 180 -247 221
-385 250 -93 20 -620 20 -710 0z m690 -170 c87 -23 152 -66 260 -175 l95 -96
-78 -40 -79 -40 -86 82 c-119 116 -121 116 -469 112 -258 -3 -275 -4 -314 -25
-50 -27 -97 -75 -121 -122 -17 -34 -18 -90 -21 -838 l-2 -803 -85 0 -85 0 0
799 c0 764 1 802 19 862 45 142 159 248 306 285 79 19 584 18 660 -1z m677
-435 c156 -48 272 -186 294 -349 l7 -51 -428 0 -428 0 6 56 c7 71 54 170 108
229 111 120 281 164 441 115z m-732 -1704 c220 -47 389 -130 575 -280 79 -64
260 -157 350 -180 33 -9 109 -21 169 -28 163 -18 194 -48 195 -190 l1 -68
-107 0 c-289 0 -525 84 -783 279 -137 103 -261 169 -385 203 -78 22 -94 22
-727 26 l-648 3 0 57 c1 96 40 160 117 188 59 22 1136 13 1243 -10z m1309
-178 c162 -55 283 -198 310 -366 7 -41 12 -280 14 -605 l2 -537 -63 0 c-53 0
-67 4 -87 25 l-25 24 0 515 c0 333 -4 533 -11 566 -20 94 -113 197 -197 219
-20 5 -83 14 -139 20 -108 10 -246 48 -240 66 2 5 37 27 78 48 113 58 238 67
358 25z m881 22 c193 -25 360 -178 399 -368 15 -74 15 -1082 0 -1115 -20 -45
-40 -47 -400 -47 l-340 0 -24 25 -25 24 0 530 c0 601 -3 631 -70 767 -22 45
-60 104 -85 132 -25 27 -45 53 -45 56 0 10 508 6 590 -4z m-2215 -274 c100
-29 216 -89 295 -152 162 -129 303 -209 466 -263 138 -46 236 -63 399 -70
l150 -6 5 -380 5 -380 25 -45 c29 -52 95 -105 148 -120 23 -6 231 -10 563 -10
596 0 586 -1 663 76 74 74 76 86 76 501 l0 363 196 0 196 0 -5 -212 c-4 -229
-10 -262 -68 -407 -92 -231 -311 -438 -553 -524 -162 -57 -158 -57 -1501 -57
-793 0 -1260 4 -1314 10 -213 27 -401 121 -553 278 -120 124 -191 246 -242
417 -19 65 -20 100 -24 538 l-3 468 508 -4 c449 -3 515 -5 568 -21z m3374 -95
c44 -32 71 -92 71 -163 l0 -58 -325 0 -325 0 0 94 c0 51 -3 108 -6 125 l-7 32
279 -3 c276 -3 279 -3 313 -27z m-3814 -1715 c49 -15 122 -29 163 -33 40 -3
75 -10 78 -14 2 -5 -9 -32 -25 -61 -35 -64 -66 -155 -76 -226 l-7 -52 -299 0
-299 0 0 60 c0 51 4 65 25 85 23 24 30 25 140 25 115 0 117 0 146 29 28 29 29
33 29 126 0 88 2 97 18 92 9 -2 57 -17 107 -31z m3115 -62 c0 -92 1 -97 29
-125 29 -29 31 -29 146 -29 110 0 117 -1 140 -25 21 -20 25 -34 25 -85 l0 -60
-297 0 -298 0 -16 84 c-10 52 -33 118 -58 170 -22 47 -41 87 -41 90 0 3 21 6
48 6 52 0 194 30 257 54 66 24 65 26 65 -80z m-568 -21 c71 -74 110 -153 133
-270 l7 -33 -1192 0 -1192 0 7 42 c16 94 60 182 128 255 l40 43 1016 0 1017 0
36 -37z"/>
<path d="M660 1703 c-8 -3 -25 -15 -37 -26 -49 -45 -22 -229 59 -396 44 -92
61 -115 141 -195 104 -103 185 -155 302 -192 90 -28 216 -47 257 -38 36 7 68
49 68 86 0 49 -36 74 -116 82 -162 16 -276 69 -384 176 -111 110 -163 219
-179 377 -6 62 -14 90 -27 103 -21 21 -61 32 -84 23z"/>
<path d="M1733 3728 c-27 -31 -193 -450 -193 -488 0 -69 92 -107 137 -57 32
34 206 475 198 504 -15 62 -100 86 -142 41z"/>
<path d="M2071 3724 c-20 -25 -21 -39 -21 -271 l0 -244 25 -24 c45 -46 125
-24 140 38 4 13 5 128 3 256 -3 231 -3 233 -27 252 -36 29 -94 25 -120 -7z"/>
<path d="M2415 3725 c-14 -13 -25 -36 -25 -49 0 -39 178 -478 202 -498 47 -41
138 -4 138 56 0 39 -178 478 -202 499 -30 25 -84 22 -113 -8z"/>
</g>
</svg>
