<?xml version="1.0" standalone="no"?>
<!DOCTYPE svg PUBLIC "-//W3C//DTD SVG 20010904//EN"
 "http://www.w3.org/TR/2001/REC-SVG-20010904/DTD/svg10.dtd">
<svg version="1.0" xmlns="http://www.w3.org/2000/svg"
 width="512.000000pt" height="512.000000pt" viewBox="0 0 512.000000 512.000000"
 preserveAspectRatio="xMidYMid meet">

<g transform="translate(0.000000,512.000000) scale(0.100000,-0.100000)"
fill="#000000" stroke="none">
<path d="M3354 4446 c-145 -77 -330 -241 -456 -401 -390 -498 -649 -1249 -757
-2195 -35 -310 -61 -730 -61 -1002 l0 -128 80 0 80 0 0 123 c0 541 70 1208
177 1682 148 663 385 1170 716 1538 33 37 35 44 -28 -130 -230 -633 -356
-1581 -381 -2860 l-7 -353 80 0 80 0 7 358 c22 1175 132 2059 336 2695 77 241
185 467 269 563 39 43 41 85 6 119 -33 34 -67 31 -141 -9z"/>
<path d="M1964 3828 c-24 -11 -44 -48 -44 -78 0 -11 30 -53 67 -92 120 -131
249 -306 349 -474 9 -15 15 -6 41 61 17 44 34 87 37 96 4 9 -14 46 -48 97 -30
45 -53 82 -50 82 3 0 32 -18 65 -40 33 -22 64 -40 67 -40 12 0 64 128 58 139
-19 30 -292 181 -426 235 -69 28 -84 30 -116 14z"/>
<path d="M425 3655 c-24 -23 -31 -57 -19 -89 3 -9 36 -37 73 -63 90 -64 286
-257 382 -376 149 -185 278 -395 389 -633 61 -133 69 -145 133 -202 38 -33 96
-90 128 -126 32 -37 59 -63 59 -59 0 17 -88 270 -124 356 -132 317 -347 657
-560 885 -27 29 -47 54 -45 56 7 7 124 -50 222 -108 273 -160 505 -381 689
-656 86 -130 210 -376 268 -535 24 -66 47 -124 50 -128 4 -5 10 20 14 55 4 35
14 102 22 151 l15 87 -32 72 c-119 272 -338 584 -548 781 -278 261 -629 456
-966 538 -104 25 -121 24 -150 -6z"/>
<path d="M3226 3419 c-35 -27 -35 -76 0 -118 48 -57 107 -230 145 -424 19 -97
30 -125 79 -212 32 -55 64 -113 72 -129 l16 -30 22 44 c25 49 25 59 -15 275
-13 71 -23 131 -21 132 2 2 32 -46 67 -107 35 -60 66 -109 69 -109 3 0 27 32
54 71 l49 72 -23 41 c-91 161 -243 352 -368 460 -71 61 -102 69 -146 34z"/>
<path d="M2744 3295 l-27 -66 49 -50 49 -50 18 88 18 88 -31 28 c-17 15 -34
27 -39 27 -5 0 -21 -29 -37 -65z"/>
<path d="M4290 3237 c-192 -96 -375 -268 -525 -492 -83 -124 -189 -322 -181
-339 3 -6 23 -54 45 -106 36 -87 40 -92 50 -70 87 213 159 345 265 485 55 73
196 228 202 222 2 -2 -17 -52 -42 -113 -107 -256 -202 -587 -250 -872 -34
-202 -35 -266 -2 -443 29 -157 58 -403 58 -495 0 -115 13 -41 21 123 29 570
128 1114 274 1509 53 143 156 354 220 449 61 93 67 124 30 160 -34 35 -68 32
-165 -18z"/>
<path d="M2072 3075 c-65 -49 -168 -155 -184 -190 -8 -18 -2 -33 38 -89 34
-49 49 -64 55 -54 6 9 9 4 9 -14 0 -23 41 -106 108 -218 7 -10 13 8 21 60 18
111 57 271 91 372 36 108 37 122 5 153 -37 38 -73 32 -143 -20z"/>
<path d="M3116 2968 c-3 -18 -11 -61 -16 -96 l-11 -63 59 -92 c86 -135 140
-229 193 -342 206 -439 313 -911 335 -1483 l7 -172 79 0 78 0 0 83 c0 45 -5
150 -10 232 -43 632 -199 1169 -474 1633 -65 109 -207 316 -225 327 -6 3 -12
-9 -15 -27z"/>
<path d="M2591 2873 c-17 -60 -31 -113 -31 -119 0 -6 10 -33 22 -60 12 -27 45
-112 74 -189 60 -158 55 -162 80 58 l16 149 -28 66 c-31 77 -92 202 -98 202
-2 0 -18 -48 -35 -107z"/>
<path d="M26 2697 c-27 -27 -33 -65 -16 -97 6 -10 53 -39 105 -64 233 -110
441 -283 609 -506 236 -313 368 -709 392 -1174 l7 -136 80 0 80 0 -7 140 c-24
488 -168 916 -425 1260 -58 78 -263 290 -341 353 l-45 37 75 -21 c176 -49 375
-141 525 -242 124 -84 314 -276 393 -396 183 -279 277 -594 298 -999 l7 -132
80 0 80 0 -7 140 c-38 768 -361 1316 -956 1623 -252 131 -545 214 -815 233
-91 7 -94 6 -119 -19z"/>
<path d="M4940 2296 c-158 -48 -296 -117 -427 -214 -87 -65 -216 -191 -258
-252 l-27 -40 18 -114 18 -115 34 56 c53 89 113 162 203 248 74 71 198 164
241 180 10 4 -4 -34 -38 -102 -89 -183 -150 -398 -188 -668 -18 -125 -36 -363
-36 -477 l0 -78 80 0 80 0 0 82 c0 209 38 530 86 726 64 263 189 511 305 604
77 61 89 76 89 108 0 40 -39 80 -77 79 -15 0 -62 -11 -103 -23z"/>
<path d="M4081 1820 c-43 -274 -48 -344 -35 -470 17 -159 34 -427 34 -537 l0
-93 80 0 80 0 0 108 c0 135 -16 386 -36 562 -18 158 -69 467 -87 531 l-13 44
-23 -145z"/>
<path d="M3417 1935 c-13 -43 -47 -206 -67 -323 -36 -213 -60 -459 -67 -679
l-6 -213 80 0 80 0 7 197 c6 202 23 390 52 590 l16 113 -31 122 c-47 187 -57
216 -64 193z"/>
<path d="M2997 1870 c-9 -24 -26 -446 -34 -812 l-6 -338 83 0 83 0 -7 195 c-8
240 -29 468 -62 685 -32 205 -50 289 -57 270z"/>
<path d="M2337 1339 c-4 -59 -10 -222 -13 -363 l-7 -256 43 0 43 0 -6 179 c-7
179 -32 459 -46 516 -5 22 -9 2 -14 -76z"/>
</g>
</svg>
